<mxfile host="Electron" modified="2024-03-10T18:09:57.889Z" agent="Mozilla/5.0 (Windows NT 10.0; Win64; x64) AppleWebKit/537.36 (KHTML, like Gecko) draw.io/24.0.4 Chrome/120.0.6099.109 Electron/28.1.0 Safari/537.36" etag="hGFGhUoogMzzxf1UqV1n" version="24.0.4" type="device">
  <diagram id="C5RBs43oDa-KdzZeNtuy" name="Page-1">
    <mxGraphModel dx="1098" dy="828" grid="1" gridSize="10" guides="1" tooltips="1" connect="1" arrows="1" fold="1" page="1" pageScale="1" pageWidth="827" pageHeight="1169" background="#FFFFFF" math="0" shadow="0">
      <root>
        <mxCell id="WIyWlLk6GJQsqaUBKTNV-0" />
        <mxCell id="WIyWlLk6GJQsqaUBKTNV-1" parent="WIyWlLk6GJQsqaUBKTNV-0" />
        <mxCell id="VIhzB3ZPwJZyskYBz-og-0" value="&lt;div&gt;&amp;lt;&amp;lt;abstract&amp;gt;&amp;gt;&lt;/div&gt;Pubblicazione" style="rounded=0;whiteSpace=wrap;html=1;" vertex="1" parent="WIyWlLk6GJQsqaUBKTNV-1">
          <mxGeometry x="570" y="280" width="100" height="40" as="geometry" />
        </mxCell>
        <mxCell id="VIhzB3ZPwJZyskYBz-og-1" value="-prezzo: double&lt;div&gt;-codice: string&lt;/div&gt;&lt;div&gt;-stockQt: int&lt;/div&gt;" style="whiteSpace=wrap;html=1;aspect=fixed;align=left;" vertex="1" parent="WIyWlLk6GJQsqaUBKTNV-1">
          <mxGeometry x="570" y="320" width="100" height="100" as="geometry" />
        </mxCell>
        <mxCell id="VIhzB3ZPwJZyskYBz-og-2" style="edgeStyle=orthogonalEdgeStyle;rounded=0;orthogonalLoop=1;jettySize=auto;html=1;exitX=1;exitY=1;exitDx=0;exitDy=0;" edge="1" parent="WIyWlLk6GJQsqaUBKTNV-1" source="VIhzB3ZPwJZyskYBz-og-1" target="VIhzB3ZPwJZyskYBz-og-1">
          <mxGeometry relative="1" as="geometry" />
        </mxCell>
        <mxCell id="VIhzB3ZPwJZyskYBz-og-3" value="+ Pubblicazione()" style="rounded=0;whiteSpace=wrap;html=1;align=left;" vertex="1" parent="WIyWlLk6GJQsqaUBKTNV-1">
          <mxGeometry x="570" y="420" width="100" height="60" as="geometry" />
        </mxCell>
        <mxCell id="VIhzB3ZPwJZyskYBz-og-7" value="Giornale&lt;div&gt;&lt;/div&gt;" style="rounded=0;whiteSpace=wrap;html=1;" vertex="1" parent="WIyWlLk6GJQsqaUBKTNV-1">
          <mxGeometry x="710" y="640" width="100" height="30" as="geometry" />
        </mxCell>
        <mxCell id="VIhzB3ZPwJZyskYBz-og-8" value="-redazione: string&lt;div&gt;-hasInserto: bool&lt;/div&gt;" style="whiteSpace=wrap;html=1;aspect=fixed;align=left;" vertex="1" parent="WIyWlLk6GJQsqaUBKTNV-1">
          <mxGeometry x="710" y="670" width="100" height="100" as="geometry" />
        </mxCell>
        <mxCell id="VIhzB3ZPwJZyskYBz-og-9" style="edgeStyle=orthogonalEdgeStyle;rounded=0;orthogonalLoop=1;jettySize=auto;html=1;exitX=1;exitY=1;exitDx=0;exitDy=0;" edge="1" source="VIhzB3ZPwJZyskYBz-og-8" target="VIhzB3ZPwJZyskYBz-og-8" parent="WIyWlLk6GJQsqaUBKTNV-1">
          <mxGeometry relative="1" as="geometry" />
        </mxCell>
        <mxCell id="VIhzB3ZPwJZyskYBz-og-10" value="+ Giornale()" style="rounded=0;whiteSpace=wrap;html=1;align=left;" vertex="1" parent="WIyWlLk6GJQsqaUBKTNV-1">
          <mxGeometry x="710" y="770" width="100" height="60" as="geometry" />
        </mxCell>
        <mxCell id="VIhzB3ZPwJZyskYBz-og-11" value="Rivista&lt;div&gt;&lt;/div&gt;" style="rounded=0;whiteSpace=wrap;html=1;" vertex="1" parent="WIyWlLk6GJQsqaUBKTNV-1">
          <mxGeometry x="450" y="650" width="100" height="30" as="geometry" />
        </mxCell>
        <mxCell id="VIhzB3ZPwJZyskYBz-og-12" value="-titolo: string&lt;div&gt;-categoria: string&lt;/div&gt;" style="whiteSpace=wrap;html=1;aspect=fixed;align=left;" vertex="1" parent="WIyWlLk6GJQsqaUBKTNV-1">
          <mxGeometry x="450" y="680" width="100" height="100" as="geometry" />
        </mxCell>
        <mxCell id="VIhzB3ZPwJZyskYBz-og-13" style="edgeStyle=orthogonalEdgeStyle;rounded=0;orthogonalLoop=1;jettySize=auto;html=1;exitX=1;exitY=1;exitDx=0;exitDy=0;" edge="1" source="VIhzB3ZPwJZyskYBz-og-12" target="VIhzB3ZPwJZyskYBz-og-12" parent="WIyWlLk6GJQsqaUBKTNV-1">
          <mxGeometry relative="1" as="geometry" />
        </mxCell>
        <mxCell id="VIhzB3ZPwJZyskYBz-og-14" value="+ Rivista()" style="rounded=0;whiteSpace=wrap;html=1;align=left;" vertex="1" parent="WIyWlLk6GJQsqaUBKTNV-1">
          <mxGeometry x="450" y="780" width="100" height="60" as="geometry" />
        </mxCell>
        <mxCell id="VIhzB3ZPwJZyskYBz-og-17" value="" style="endArrow=none;html=1;rounded=0;strokeColor=#000000;strokeWidth=2;" edge="1" parent="WIyWlLk6GJQsqaUBKTNV-1">
          <mxGeometry width="50" height="50" relative="1" as="geometry">
            <mxPoint x="500" y="650" as="sourcePoint" />
            <mxPoint x="760" y="570" as="targetPoint" />
            <Array as="points">
              <mxPoint x="500" y="570" />
            </Array>
          </mxGeometry>
        </mxCell>
        <mxCell id="VIhzB3ZPwJZyskYBz-og-18" value="" style="endArrow=none;html=1;rounded=0;strokeColor=#000000;endSize=15;strokeWidth=2;" edge="1" parent="WIyWlLk6GJQsqaUBKTNV-1">
          <mxGeometry width="50" height="50" relative="1" as="geometry">
            <mxPoint x="760" y="640" as="sourcePoint" />
            <mxPoint x="760" y="570" as="targetPoint" />
            <Array as="points">
              <mxPoint x="760" y="610" />
            </Array>
          </mxGeometry>
        </mxCell>
        <mxCell id="VIhzB3ZPwJZyskYBz-og-19" value="" style="endArrow=block;html=1;rounded=0;strokeColor=#000000;endFill=0;jumpSize=19;strokeWidth=2;" edge="1" parent="WIyWlLk6GJQsqaUBKTNV-1">
          <mxGeometry width="50" height="50" relative="1" as="geometry">
            <mxPoint x="620" y="570" as="sourcePoint" />
            <mxPoint x="620" y="480" as="targetPoint" />
          </mxGeometry>
        </mxCell>
        <mxCell id="VIhzB3ZPwJZyskYBz-og-20" value="Persona" style="rounded=0;whiteSpace=wrap;html=1;" vertex="1" parent="WIyWlLk6GJQsqaUBKTNV-1">
          <mxGeometry x="275" y="860" width="110" height="30" as="geometry" />
        </mxCell>
        <mxCell id="VIhzB3ZPwJZyskYBz-og-21" value="-nominativo: string&lt;div&gt;-indirizzo: string&lt;/div&gt;" style="rounded=0;whiteSpace=wrap;html=1;align=left;" vertex="1" parent="WIyWlLk6GJQsqaUBKTNV-1">
          <mxGeometry x="275" y="890" width="110" height="60" as="geometry" />
        </mxCell>
        <mxCell id="VIhzB3ZPwJZyskYBz-og-22" value="+ Persona()" style="rounded=0;whiteSpace=wrap;html=1;align=left;" vertex="1" parent="WIyWlLk6GJQsqaUBKTNV-1">
          <mxGeometry x="275" y="950" width="110" height="30" as="geometry" />
        </mxCell>
        <mxCell id="VIhzB3ZPwJZyskYBz-og-23" value="Abbonamento" style="rounded=0;whiteSpace=wrap;html=1;" vertex="1" parent="WIyWlLk6GJQsqaUBKTNV-1">
          <mxGeometry x="270" y="610" width="120" height="40" as="geometry" />
        </mxCell>
        <mxCell id="VIhzB3ZPwJZyskYBz-og-31" style="edgeStyle=orthogonalEdgeStyle;rounded=0;orthogonalLoop=1;jettySize=auto;html=1;exitX=1;exitY=1;exitDx=0;exitDy=0;" edge="1" parent="WIyWlLk6GJQsqaUBKTNV-1" source="VIhzB3ZPwJZyskYBz-og-24">
          <mxGeometry relative="1" as="geometry">
            <mxPoint x="410" y="710" as="targetPoint" />
          </mxGeometry>
        </mxCell>
        <mxCell id="VIhzB3ZPwJZyskYBz-og-24" value="-consegna: dateTime&lt;div&gt;-persona: Cliente&lt;/div&gt;&lt;div&gt;-rivista: Rivista&lt;/div&gt;" style="rounded=0;whiteSpace=wrap;html=1;align=left;" vertex="1" parent="WIyWlLk6GJQsqaUBKTNV-1">
          <mxGeometry x="270" y="650" width="120" height="60" as="geometry" />
        </mxCell>
        <mxCell id="VIhzB3ZPwJZyskYBz-og-25" value="+ Abbonamento()" style="rounded=0;whiteSpace=wrap;html=1;align=left;" vertex="1" parent="WIyWlLk6GJQsqaUBKTNV-1">
          <mxGeometry x="270" y="710" width="120" height="30" as="geometry" />
        </mxCell>
        <mxCell id="VIhzB3ZPwJZyskYBz-og-26" value="Vendita" style="rounded=0;whiteSpace=wrap;html=1;" vertex="1" parent="WIyWlLk6GJQsqaUBKTNV-1">
          <mxGeometry x="100" y="610" width="130" height="40" as="geometry" />
        </mxCell>
        <mxCell id="VIhzB3ZPwJZyskYBz-og-27" value="-dataVendita: dateTime&lt;div&gt;-qt: int&lt;/div&gt;&lt;div&gt;-rivista: Rivista&lt;/div&gt;&lt;div&gt;-tipoPagamento : string&lt;/div&gt;" style="rounded=0;whiteSpace=wrap;html=1;align=left;" vertex="1" parent="WIyWlLk6GJQsqaUBKTNV-1">
          <mxGeometry x="100" y="650" width="130" height="60" as="geometry" />
        </mxCell>
        <mxCell id="VIhzB3ZPwJZyskYBz-og-28" value="+ Vendita()" style="rounded=0;whiteSpace=wrap;html=1;align=left;" vertex="1" parent="WIyWlLk6GJQsqaUBKTNV-1">
          <mxGeometry x="100" y="710" width="130" height="30" as="geometry" />
        </mxCell>
        <mxCell id="VIhzB3ZPwJZyskYBz-og-29" value="" style="endArrow=classic;html=1;rounded=0;strokeWidth=2;strokeColor=#000000;" edge="1" parent="WIyWlLk6GJQsqaUBKTNV-1">
          <mxGeometry width="50" height="50" relative="1" as="geometry">
            <mxPoint x="316" y="860" as="sourcePoint" />
            <mxPoint x="316" y="740" as="targetPoint" />
            <Array as="points" />
          </mxGeometry>
        </mxCell>
        <mxCell id="VIhzB3ZPwJZyskYBz-og-30" value="" style="endArrow=classic;html=1;rounded=0;strokeWidth=2;strokeColor=#000000;entryX=0.18;entryY=-0.067;entryDx=0;entryDy=0;entryPerimeter=0;" edge="1" parent="WIyWlLk6GJQsqaUBKTNV-1" target="VIhzB3ZPwJZyskYBz-og-11">
          <mxGeometry width="50" height="50" relative="1" as="geometry">
            <mxPoint x="470" y="520" as="sourcePoint" />
            <mxPoint x="450" y="650" as="targetPoint" />
            <Array as="points" />
          </mxGeometry>
        </mxCell>
        <mxCell id="VIhzB3ZPwJZyskYBz-og-32" value="" style="endArrow=none;html=1;rounded=0;strokeWidth=2;strokeColor=#000000;" edge="1" parent="WIyWlLk6GJQsqaUBKTNV-1">
          <mxGeometry width="50" height="50" relative="1" as="geometry">
            <mxPoint x="470" y="520" as="sourcePoint" />
            <mxPoint x="320" y="520" as="targetPoint" />
            <Array as="points">
              <mxPoint x="320" y="520" />
              <mxPoint x="130" y="520" />
            </Array>
          </mxGeometry>
        </mxCell>
        <mxCell id="VIhzB3ZPwJZyskYBz-og-33" value="" style="endArrow=none;html=1;rounded=0;strokeWidth=2;strokeColor=#000000;exitX=0.25;exitY=0;exitDx=0;exitDy=0;" edge="1" parent="WIyWlLk6GJQsqaUBKTNV-1" source="VIhzB3ZPwJZyskYBz-og-26">
          <mxGeometry width="50" height="50" relative="1" as="geometry">
            <mxPoint x="90" y="570" as="sourcePoint" />
            <mxPoint x="130" y="520" as="targetPoint" />
          </mxGeometry>
        </mxCell>
        <mxCell id="VIhzB3ZPwJZyskYBz-og-34" value="" style="endArrow=classic;html=1;rounded=0;strokeWidth=2;strokeColor=#000000;entryX=0;entryY=0.5;entryDx=0;entryDy=0;" edge="1" parent="WIyWlLk6GJQsqaUBKTNV-1" target="VIhzB3ZPwJZyskYBz-og-12">
          <mxGeometry width="50" height="50" relative="1" as="geometry">
            <mxPoint x="385" y="730" as="sourcePoint" />
            <mxPoint x="435" y="680" as="targetPoint" />
          </mxGeometry>
        </mxCell>
        <mxCell id="VIhzB3ZPwJZyskYBz-og-35" value="Edicola" style="rounded=0;whiteSpace=wrap;html=1;" vertex="1" parent="WIyWlLk6GJQsqaUBKTNV-1">
          <mxGeometry x="130" y="200" width="170" height="40" as="geometry" />
        </mxCell>
        <mxCell id="VIhzB3ZPwJZyskYBz-og-36" value="-indirizzo: string&lt;div&gt;-nome: string&lt;/div&gt;&lt;div&gt;-magazzino:[Pubblicazione]&lt;/div&gt;&lt;div&gt;-vendite:[Vendita]&lt;/div&gt;&lt;div&gt;-abbonamenti:[Abbonamento]&lt;/div&gt;" style="rounded=0;whiteSpace=wrap;html=1;align=left;" vertex="1" parent="WIyWlLk6GJQsqaUBKTNV-1">
          <mxGeometry x="130" y="240" width="170" height="90" as="geometry" />
        </mxCell>
        <mxCell id="VIhzB3ZPwJZyskYBz-og-37" value="+ Edicola()" style="rounded=0;whiteSpace=wrap;html=1;align=left;" vertex="1" parent="WIyWlLk6GJQsqaUBKTNV-1">
          <mxGeometry x="130" y="330" width="170" height="40" as="geometry" />
        </mxCell>
        <mxCell id="VIhzB3ZPwJZyskYBz-og-38" value="" style="endArrow=diamondThin;html=1;rounded=0;entryX=1;entryY=0;entryDx=0;entryDy=0;endFill=0;strokeWidth=2;strokeColor=#000000;exitX=0;exitY=0.75;exitDx=0;exitDy=0;" edge="1" parent="WIyWlLk6GJQsqaUBKTNV-1" source="VIhzB3ZPwJZyskYBz-og-0" target="VIhzB3ZPwJZyskYBz-og-36">
          <mxGeometry width="50" height="50" relative="1" as="geometry">
            <mxPoint x="300" y="290" as="sourcePoint" />
            <mxPoint x="350" y="240" as="targetPoint" />
            <Array as="points">
              <mxPoint x="570" y="240" />
            </Array>
          </mxGeometry>
        </mxCell>
        <mxCell id="VIhzB3ZPwJZyskYBz-og-39" value="" style="endArrow=diamondThin;html=1;rounded=0;strokeColor=#000000;strokeWidth=2;exitX=0.25;exitY=0;exitDx=0;exitDy=0;endFill=1;" edge="1" parent="WIyWlLk6GJQsqaUBKTNV-1" source="VIhzB3ZPwJZyskYBz-og-23">
          <mxGeometry width="50" height="50" relative="1" as="geometry">
            <mxPoint x="390" y="590" as="sourcePoint" />
            <mxPoint x="302" y="302" as="targetPoint" />
            <Array as="points">
              <mxPoint x="430" y="470" />
              <mxPoint x="430" y="300" />
            </Array>
          </mxGeometry>
        </mxCell>
        <mxCell id="VIhzB3ZPwJZyskYBz-og-40" value="" style="endArrow=diamondThin;html=1;rounded=0;strokeWidth=2;strokeColor=#000000;endFill=1;entryX=0.124;entryY=1.125;entryDx=0;entryDy=0;entryPerimeter=0;exitX=0;exitY=0;exitDx=0;exitDy=0;" edge="1" parent="WIyWlLk6GJQsqaUBKTNV-1" source="VIhzB3ZPwJZyskYBz-og-26" target="VIhzB3ZPwJZyskYBz-og-37">
          <mxGeometry width="50" height="50" relative="1" as="geometry">
            <mxPoint x="50" y="660" as="sourcePoint" />
            <mxPoint x="160" y="380" as="targetPoint" />
            <Array as="points">
              <mxPoint x="100" y="550" />
            </Array>
          </mxGeometry>
        </mxCell>
      </root>
    </mxGraphModel>
  </diagram>
</mxfile>
